# xmcd CD database file
#
# Track frame offsets:
#	150
#	14107
#	29923
#	45102
#	61061
#	79549
#	94874
#	109892
#	131918
#	151566
#	171000
#	188577
#
# Disc length: 2684 seconds
#
# Revision: 0
# Processed by: cddbd v1.5.1PL2 Copyright (c) Steve Scherf et al.
# Submitted via: CDex 1.50
#
DISCID=900a7a0c
DTITLE=Bill Chambers - Frozen Ground
DYEAR=2006
DGENRE=Country
TTITLE0=Falling Like Snow
TTITLE1=Chasing Rainbows
TTITLE2=Theresa
TTITLE3=Big River
TTITLE4=The Island
TTITLE5=Killing The Blues
TTITLE6=This Ain't Louisiana
TTITLE7=Rider In The Rain
TTITLE8=Ain't Your Town No More
TTITLE9=Poison Blood
TTITLE10=The Stranger
TTITLE11=Little Man
EXTD=YEAR: 2006
EXTT0=
EXTT1=
EXTT2=
EXTT3=
EXTT4=
EXTT5=
EXTT6=
EXTT7=
EXTT8=
EXTT9=
EXTT10=
EXTT11=
PLAYORDER=
